<svg xmlns="http://www.w3.org/2000/svg" viewBox="0 0 1000 600" width="1000" height="600" style="background:#0d1117; font-family:'Segoe UI', sans-serif;">\n  <!-- Title -->\n  <text x="500" y="40" fill="#58a6ff" font-size="26" font-weight="bold" text-anchor="middle">Thai "T" Solfège Extensions: The Chromatic Staircase</text>\n  <text x="500" y="65" fill="#8b949e" font-size="16" text-anchor="middle">Illustrating Ascending (Ju ♯) vs Descending (Thai T-Extensions ♭)</text>\n  <rect x="70" y="90" width="220" height="490" fill="#161b22" rx="8" stroke="#30363d" stroke-width="2"/>\n  <text x="180" y="125" fill="#3fb950" font-size="20" font-weight="bold" text-anchor="middle">Ascending</text>\n  <text x="180" y="145" fill="#8b949e" font-size="14" text-anchor="middle">Sharp Alterations (♯)</text>\n  <rect x="120" y="152" width="110" height="24" fill="#21262d" rx="4"/>\n  <text x="100" y="170" fill="#8b949e" font-size="14" text-anchor="end" font-weight="bold">C</text>\n  <text x="175" y="170" fill="#c9d1d9" font-size="16" font-weight="bold" text-anchor="middle">Do</text>\n  <rect x="120" y="182" width="110" height="24" fill="#21262d" rx="4"/>\n  <text x="100" y="200" fill="#8b949e" font-size="14" text-anchor="end" font-weight="bold">B</text>\n  <text x="175" y="200" fill="#c9d1d9" font-size="16" font-weight="bold" text-anchor="middle">Ti</text>\n  <rect x="120" y="212" width="110" height="24" fill="#1d2e42" rx="4"/>\n  <text x="100" y="230" fill="#8b949e" font-size="14" text-anchor="end" font-weight="bold">A#</text>\n  <text x="175" y="230" fill="#58a6ff" font-size="16" font-weight="bold" text-anchor="middle">Li</text>\n  <rect x="120" y="242" width="110" height="24" fill="#21262d" rx="4"/>\n  <text x="100" y="260" fill="#8b949e" font-size="14" text-anchor="end" font-weight="bold">A</text>\n  <text x="175" y="260" fill="#c9d1d9" font-size="16" font-weight="bold" text-anchor="middle">La</text>\n  <rect x="120" y="272" width="110" height="24" fill="#1d2e42" rx="4"/>\n  <text x="100" y="290" fill="#8b949e" font-size="14" text-anchor="end" font-weight="bold">G#</text>\n  <text x="175" y="290" fill="#58a6ff" font-size="16" font-weight="bold" text-anchor="middle">Si</text>\n  <rect x="120" y="302" width="110" height="24" fill="#21262d" rx="4"/>\n  <text x="100" y="320" fill="#8b949e" font-size="14" text-anchor="end" font-weight="bold">G</text>\n  <text x="175" y="320" fill="#c9d1d9" font-size="16" font-weight="bold" text-anchor="middle">Sol</text>\n  <rect x="120" y="332" width="110" height="24" fill="#1d2e42" rx="4"/>\n  <text x="100" y="350" fill="#8b949e" font-size="14" text-anchor="end" font-weight="bold">F#</text>\n  <text x="175" y="350" fill="#58a6ff" font-size="16" font-weight="bold" text-anchor="middle">Fi</text>\n  <rect x="120" y="362" width="110" height="24" fill="#21262d" rx="4"/>\n  <text x="100" y="380" fill="#8b949e" font-size="14" text-anchor="end" font-weight="bold">F</text>\n  <text x="175" y="380" fill="#c9d1d9" font-size="16" font-weight="bold" text-anchor="middle">Fa</text>\n  <rect x="120" y="392" width="110" height="24" fill="#21262d" rx="4"/>\n  <text x="100" y="410" fill="#8b949e" font-size="14" text-anchor="end" font-weight="bold">E</text>\n  <text x="175" y="410" fill="#c9d1d9" font-size="16" font-weight="bold" text-anchor="middle">Mi</text>\n  <rect x="120" y="422" width="110" height="24" fill="#1d2e42" rx="4"/>\n  <text x="100" y="440" fill="#8b949e" font-size="14" text-anchor="end" font-weight="bold">D#</text>\n  <text x="175" y="440" fill="#58a6ff" font-size="16" font-weight="bold" text-anchor="middle">Ri</text>\n  <rect x="120" y="452" width="110" height="24" fill="#21262d" rx="4"/>\n  <text x="100" y="470" fill="#8b949e" font-size="14" text-anchor="end" font-weight="bold">D</text>\n  <text x="175" y="470" fill="#c9d1d9" font-size="16" font-weight="bold" text-anchor="middle">Re</text>\n  <rect x="120" y="482" width="110" height="24" fill="#1d2e42" rx="4"/>\n  <text x="100" y="500" fill="#8b949e" font-size="14" text-anchor="end" font-weight="bold">C#</text>\n  <text x="175" y="500" fill="#58a6ff" font-size="16" font-weight="bold" text-anchor="middle">Di</text>\n  <rect x="120" y="512" width="110" height="24" fill="#21262d" rx="4"/>\n  <text x="100" y="530" fill="#8b949e" font-size="14" text-anchor="end" font-weight="bold">C</text>\n  <text x="175" y="530" fill="#c9d1d9" font-size="16" font-weight="bold" text-anchor="middle">Do</text>\n  <rect x="320" y="90" width="630" height="490" fill="#161b22" rx="8" stroke="#8e1519" stroke-width="2"/>\n  <text x="635" y="125" fill="#ff7b72" font-size="20" font-weight="bold" text-anchor="middle">Descending</text>\n  <text x="635" y="145" fill="#8b949e" font-size="14" text-anchor="middle">Thai "T" Flat Alterations (♭)</text>\n  <text x="445" y="165" fill="#a371f7" font-size="16" font-weight="bold" text-anchor="middle">TUE</text>\n  <text x="555" y="165" fill="#a371f7" font-size="16" font-weight="bold" text-anchor="middle">TIA</text>\n  <text x="665" y="165" fill="#a371f7" font-size="16" font-weight="bold" text-anchor="middle">TUEA</text>\n  <text x="775" y="165" fill="#a371f7" font-size="16" font-weight="bold" text-anchor="middle">TUA</text>\n  <text x="445" y="180" fill="#8b949e" font-size="12" text-anchor="middle">(-ือ)</text>\n  <text x="555" y="180" fill="#8b949e" font-size="12" text-anchor="middle">(-ีย)</text>\n  <text x="665" y="180" fill="#8b949e" font-size="12" text-anchor="middle">(-ือ)</text>\n  <text x="775" y="180" fill="#8b949e" font-size="12" text-anchor="middle">(-ัว)</text>\n  <text x="360" y="200" fill="#8b949e" font-size="14" text-anchor="end" font-weight="bold">C</text>\n  <rect x="420" y="182" width="80" height="24" fill="#21262d" rx="4"/>\n  <text x="460" y="200" fill="#c9d1d9" font-size="16" font-weight="bold" text-anchor="middle">Do</text>\n  <rect x="530" y="182" width="80" height="24" fill="#21262d" rx="4"/>\n  <text x="570" y="200" fill="#c9d1d9" font-size="16" font-weight="bold" text-anchor="middle">Do</text>\n  <rect x="640" y="182" width="80" height="24" fill="#21262d" rx="4"/>\n  <text x="680" y="200" fill="#c9d1d9" font-size="16" font-weight="bold" text-anchor="middle">Do</text>\n  <rect x="750" y="182" width="80" height="24" fill="#21262d" rx="4"/>\n  <text x="790" y="200" fill="#c9d1d9" font-size="16" font-weight="bold" text-anchor="middle">Do</text>\n  <text x="360" y="228" fill="#8b949e" font-size="14" text-anchor="end" font-weight="bold">B</text>\n  <rect x="420" y="210" width="80" height="24" fill="#21262d" rx="4"/>\n  <text x="460" y="228" fill="#c9d1d9" font-size="16" font-weight="bold" text-anchor="middle">Ti</text>\n  <rect x="530" y="210" width="80" height="24" fill="#21262d" rx="4"/>\n  <text x="570" y="228" fill="#c9d1d9" font-size="16" font-weight="bold" text-anchor="middle">Ti</text>\n  <rect x="640" y="210" width="80" height="24" fill="#21262d" rx="4"/>\n  <text x="680" y="228" fill="#c9d1d9" font-size="16" font-weight="bold" text-anchor="middle">Ti</text>\n  <rect x="750" y="210" width="80" height="24" fill="#21262d" rx="4"/>\n  <text x="790" y="228" fill="#c9d1d9" font-size="16" font-weight="bold" text-anchor="middle">Ti</text>\n  <text x="360" y="256" fill="#8b949e" font-size="14" text-anchor="end" font-weight="bold">Bb</text>\n  <rect x="420" y="238" width="80" height="24" fill="#3c1e1e" rx="4"/>\n  <text x="460" y="256" fill="#ffa657" font-size="16" font-weight="bold" text-anchor="middle">Tue</text>\n  <rect x="530" y="238" width="80" height="24" fill="#3c1e1e" rx="4"/>\n  <text x="570" y="256" fill="#ffa657" font-size="16" font-weight="bold" text-anchor="middle">Tia</text>\n  <rect x="640" y="238" width="80" height="24" fill="#3c1e1e" rx="4"/>\n  <text x="680" y="256" fill="#ffa657" font-size="16" font-weight="bold" text-anchor="middle">Tuea</text>\n  <rect x="750" y="238" width="80" height="24" fill="#3c1e1e" rx="4"/>\n  <text x="790" y="256" fill="#ffa657" font-size="16" font-weight="bold" text-anchor="middle">Tua</text>\n  <text x="360" y="284" fill="#8b949e" font-size="14" text-anchor="end" font-weight="bold">A</text>\n  <rect x="420" y="266" width="80" height="24" fill="#21262d" rx="4"/>\n  <text x="460" y="284" fill="#c9d1d9" font-size="16" font-weight="bold" text-anchor="middle">La</text>\n  <rect x="530" y="266" width="80" height="24" fill="#21262d" rx="4"/>\n  <text x="570" y="284" fill="#c9d1d9" font-size="16" font-weight="bold" text-anchor="middle">La</text>\n  <rect x="640" y="266" width="80" height="24" fill="#21262d" rx="4"/>\n  <text x="680" y="284" fill="#c9d1d9" font-size="16" font-weight="bold" text-anchor="middle">La</text>\n  <rect x="750" y="266" width="80" height="24" fill="#21262d" rx="4"/>\n  <text x="790" y="284" fill="#c9d1d9" font-size="16" font-weight="bold" text-anchor="middle">La</text>\n  <text x="360" y="312" fill="#8b949e" font-size="14" text-anchor="end" font-weight="bold">Ab</text>\n  <rect x="420" y="294" width="80" height="24" fill="#3c1e1e" rx="4"/>\n  <text x="460" y="312" fill="#ffa657" font-size="16" font-weight="bold" text-anchor="middle">Lue</text>\n  <rect x="530" y="294" width="80" height="24" fill="#3c1e1e" rx="4"/>\n  <text x="570" y="312" fill="#ffa657" font-size="16" font-weight="bold" text-anchor="middle">Lia</text>\n  <rect x="640" y="294" width="80" height="24" fill="#3c1e1e" rx="4"/>\n  <text x="680" y="312" fill="#ffa657" font-size="16" font-weight="bold" text-anchor="middle">Luea</text>\n  <rect x="750" y="294" width="80" height="24" fill="#3c1e1e" rx="4"/>\n  <text x="790" y="312" fill="#ffa657" font-size="16" font-weight="bold" text-anchor="middle">Lua</text>\n  <text x="360" y="340" fill="#8b949e" font-size="14" text-anchor="end" font-weight="bold">G</text>\n  <rect x="420" y="322" width="80" height="24" fill="#21262d" rx="4"/>\n  <text x="460" y="340" fill="#c9d1d9" font-size="16" font-weight="bold" text-anchor="middle">Sol</text>\n  <rect x="530" y="322" width="80" height="24" fill="#21262d" rx="4"/>\n  <text x="570" y="340" fill="#c9d1d9" font-size="16" font-weight="bold" text-anchor="middle">Sol</text>\n  <rect x="640" y="322" width="80" height="24" fill="#21262d" rx="4"/>\n  <text x="680" y="340" fill="#c9d1d9" font-size="16" font-weight="bold" text-anchor="middle">Sol</text>\n  <rect x="750" y="322" width="80" height="24" fill="#21262d" rx="4"/>\n  <text x="790" y="340" fill="#c9d1d9" font-size="16" font-weight="bold" text-anchor="middle">Sol</text>\n  <text x="360" y="368" fill="#8b949e" font-size="14" text-anchor="end" font-weight="bold">Gb</text>\n  <rect x="420" y="350" width="80" height="24" fill="#3c1e1e" rx="4"/>\n  <text x="460" y="368" fill="#ffa657" font-size="16" font-weight="bold" text-anchor="middle">Sue</text>\n  <rect x="530" y="350" width="80" height="24" fill="#3c1e1e" rx="4"/>\n  <text x="570" y="368" fill="#ffa657" font-size="16" font-weight="bold" text-anchor="middle">Sia</text>\n  <rect x="640" y="350" width="80" height="24" fill="#3c1e1e" rx="4"/>\n  <text x="680" y="368" fill="#ffa657" font-size="16" font-weight="bold" text-anchor="middle">Suea</text>\n  <rect x="750" y="350" width="80" height="24" fill="#3c1e1e" rx="4"/>\n  <text x="790" y="368" fill="#ffa657" font-size="16" font-weight="bold" text-anchor="middle">Sua</text>\n  <text x="360" y="396" fill="#8b949e" font-size="14" text-anchor="end" font-weight="bold">F</text>\n  <rect x="420" y="378" width="80" height="24" fill="#21262d" rx="4"/>\n  <text x="460" y="396" fill="#c9d1d9" font-size="16" font-weight="bold" text-anchor="middle">Fa</text>\n  <rect x="530" y="378" width="80" height="24" fill="#21262d" rx="4"/>\n  <text x="570" y="396" fill="#c9d1d9" font-size="16" font-weight="bold" text-anchor="middle">Fa</text>\n  <rect x="640" y="378" width="80" height="24" fill="#21262d" rx="4"/>\n  <text x="680" y="396" fill="#c9d1d9" font-size="16" font-weight="bold" text-anchor="middle">Fa</text>\n  <rect x="750" y="378" width="80" height="24" fill="#21262d" rx="4"/>\n  <text x="790" y="396" fill="#c9d1d9" font-size="16" font-weight="bold" text-anchor="middle">Fa</text>\n  <text x="360" y="424" fill="#8b949e" font-size="14" text-anchor="end" font-weight="bold">E</text>\n  <rect x="420" y="406" width="80" height="24" fill="#21262d" rx="4"/>\n  <text x="460" y="424" fill="#c9d1d9" font-size="16" font-weight="bold" text-anchor="middle">Mi</text>\n  <rect x="530" y="406" width="80" height="24" fill="#21262d" rx="4"/>\n  <text x="570" y="424" fill="#c9d1d9" font-size="16" font-weight="bold" text-anchor="middle">Mi</text>\n  <rect x="640" y="406" width="80" height="24" fill="#21262d" rx="4"/>\n  <text x="680" y="424" fill="#c9d1d9" font-size="16" font-weight="bold" text-anchor="middle">Mi</text>\n  <rect x="750" y="406" width="80" height="24" fill="#21262d" rx="4"/>\n  <text x="790" y="424" fill="#c9d1d9" font-size="16" font-weight="bold" text-anchor="middle">Mi</text>\n  <text x="360" y="452" fill="#8b949e" font-size="14" text-anchor="end" font-weight="bold">Eb</text>\n  <rect x="420" y="434" width="80" height="24" fill="#3c1e1e" rx="4"/>\n  <text x="460" y="452" fill="#ffa657" font-size="16" font-weight="bold" text-anchor="middle">Mue</text>\n  <rect x="530" y="434" width="80" height="24" fill="#3c1e1e" rx="4"/>\n  <text x="570" y="452" fill="#ffa657" font-size="16" font-weight="bold" text-anchor="middle">Mia</text>\n  <rect x="640" y="434" width="80" height="24" fill="#3c1e1e" rx="4"/>\n  <text x="680" y="452" fill="#ffa657" font-size="16" font-weight="bold" text-anchor="middle">Muea</text>\n  <rect x="750" y="434" width="80" height="24" fill="#3c1e1e" rx="4"/>\n  <text x="790" y="452" fill="#ffa657" font-size="16" font-weight="bold" text-anchor="middle">Mua</text>\n  <text x="360" y="480" fill="#8b949e" font-size="14" text-anchor="end" font-weight="bold">D</text>\n  <rect x="420" y="462" width="80" height="24" fill="#21262d" rx="4"/>\n  <text x="460" y="480" fill="#c9d1d9" font-size="16" font-weight="bold" text-anchor="middle">Re</text>\n  <rect x="530" y="462" width="80" height="24" fill="#21262d" rx="4"/>\n  <text x="570" y="480" fill="#c9d1d9" font-size="16" font-weight="bold" text-anchor="middle">Re</text>\n  <rect x="640" y="462" width="80" height="24" fill="#21262d" rx="4"/>\n  <text x="680" y="480" fill="#c9d1d9" font-size="16" font-weight="bold" text-anchor="middle">Re</text>\n  <rect x="750" y="462" width="80" height="24" fill="#21262d" rx="4"/>\n  <text x="790" y="480" fill="#c9d1d9" font-size="16" font-weight="bold" text-anchor="middle">Re</text>\n  <text x="360" y="508" fill="#8b949e" font-size="14" text-anchor="end" font-weight="bold">Db</text>\n  <rect x="420" y="490" width="80" height="24" fill="#3c1e1e" rx="4"/>\n  <text x="460" y="508" fill="#ffa657" font-size="16" font-weight="bold" text-anchor="middle">Rue</text>\n  <rect x="530" y="490" width="80" height="24" fill="#3c1e1e" rx="4"/>\n  <text x="570" y="508" fill="#ffa657" font-size="16" font-weight="bold" text-anchor="middle">Ria</text>\n  <rect x="640" y="490" width="80" height="24" fill="#3c1e1e" rx="4"/>\n  <text x="680" y="508" fill="#ffa657" font-size="16" font-weight="bold" text-anchor="middle">Ruea</text>\n  <rect x="750" y="490" width="80" height="24" fill="#3c1e1e" rx="4"/>\n  <text x="790" y="508" fill="#ffa657" font-size="16" font-weight="bold" text-anchor="middle">Rua</text>\n  <text x="360" y="536" fill="#8b949e" font-size="14" text-anchor="end" font-weight="bold">C</text>\n  <rect x="420" y="518" width="80" height="24" fill="#21262d" rx="4"/>\n  <text x="460" y="536" fill="#c9d1d9" font-size="16" font-weight="bold" text-anchor="middle">Do</text>\n  <rect x="530" y="518" width="80" height="24" fill="#21262d" rx="4"/>\n  <text x="570" y="536" fill="#c9d1d9" font-size="16" font-weight="bold" text-anchor="middle">Do</text>\n  <rect x="640" y="518" width="80" height="24" fill="#21262d" rx="4"/>\n  <text x="680" y="536" fill="#c9d1d9" font-size="16" font-weight="bold" text-anchor="middle">Do</text>\n  <rect x="750" y="518" width="80" height="24" fill="#21262d" rx="4"/>\n  <text x="790" y="536" fill="#c9d1d9" font-size="16" font-weight="bold" text-anchor="middle">Do</text>\n</svg>